<svg fill="#1C2033" width="52" height="52" viewBox="0 0 64 64" xmlns="http://www.w3.org/2000/svg"><g clip-path="url(#clip0_412_71)"><path d="M14.6 63H5.7C2.6 63 0 60.5 0 57.5V28C0 24.9 2.5 22.5 5.7 22.5H14.6C17.7 22.5 20.3 25 20.3 28V57.5C20.4 60.5 17.8 63 14.6 63ZM5.7 27.4C5.4 27.4 5.1 27.5 5.1 27.8V57.3C5.1 57.4 5.2 57.7 5.7 57.7H14.6C14.9 57.7 15.2 57.6 15.2 57.3V28C15.2 27.9 14.9 27.6 14.6 27.6H5.7V27.4Z"/><path d="M58.7984 63H49.7984C46.6984 63 44.0984 60.5 44.0984 57.5V45.3C44.0984 44.7 43.6984 44.3 42.8984 44.3C42.2984 44.3 41.6984 44.7 41.6984 45.3V57.4C41.6984 60.5 39.1984 62.9 35.9984 62.9H27.0984C23.9984 62.9 21.3984 60.4 21.3984 57.4V28C21.3984 24.9 23.8984 22.5 27.0984 22.5H35.9984C37.8984 22.5 39.4984 23.4 40.4984 24.8C40.8984 24.7 41.3984 24.4 41.6984 24.2C44.7984 22.7 48.2984 22.3 51.4984 22.7C58.4984 23.6 63.8984 29.4 63.9984 36.4V57.7C64.2984 60.5 61.7984 63 58.7984 63ZM42.9984 39.4C46.3984 39.4 49.0984 42.2 49.0984 45.4V57.5C49.0984 57.6 49.1984 57.9 49.6984 57.9H58.5984C58.8984 57.9 59.1984 57.8 59.1984 57.5V36.3C59.0984 31.9 55.5984 28.1 50.9984 27.7C48.6984 27.4 45.9984 27.8 43.6984 28.9C42.4984 29.3 41.4984 30.1 40.4984 30.7L36.5984 33.5V28C36.5984 27.9 36.4984 27.6 35.9984 27.6H27.0984C26.7984 27.6 26.4984 27.7 26.4984 28V57.5C26.4984 57.6 26.5984 57.9 27.0984 57.9H36.0984C36.3984 57.9 36.6984 57.8 36.6984 57.5V45.3C36.8984 42 39.4984 39.4 42.9984 39.4Z"/><path d="M10.7992 21.9C4.99922 21.9 0.199219 17.2 0.199219 11.4C0.199219 5.6 4.79922 1 10.7992 1C16.7992 1 21.3992 5.7 21.3992 11.5C21.3992 17.3 16.5992 21.9 10.7992 21.9ZM10.7992 6.1C7.69922 6.1 5.09922 8.6 5.09922 11.5C5.09922 14.6 7.59922 16.9 10.7992 16.9C13.9992 16.9 16.4992 14.4 16.4992 11.5C16.4992 8.4 13.9992 6.1 10.7992 6.1Z"/></g><defs><clipPath id="clip0_412_71"><rect width="64" height="64" fill="white"/></clipPath></defs></svg>